<svg xmlns="http://www.w3.org/2000/svg" width="908" height="486.667" version="1.0" viewBox="0 0 681 365">
  <path d="M0 181.9v181.8l6.1.7c3.4.3 156.7.6 340.5.6H681V0H0v181.9zM460 28v13h180v283H460v26H221v-27H41V40h180V15h239v13z"/>
  <path d="M374.1 73.2c-7.5 3.7-10.1 11-6.2 17.4 2.6 4.2 8.2 6.6 16.9 7.2l7.2.5v13.4c0 10.4-.3 13.4-1.2 13-17.3-7.5-24-9.2-39.8-10.3-23.7-1.6-47.1 4.3-63.5 16.1-29.7 21.2-31.4 60.1-3.6 83.2 13.1 10.8 28.7 16.5 50.3 18.4 21.3 1.8 34.4-.5 56.6-9.8.8-.4 1.2.6 1.2 3.2v3.6l25.9-.3c24.4-.3 26.1-.4 28.7-2.4 6.8-5.1 8.7-11.8 4.7-17.1-3.4-4.6-7.6-6.4-16.3-7l-8-.6V71h-24.2c-22.9 0-24.6.1-28.7 2.2zm-8.1 70.7c15.9 5 25.9 16.4 26 29.6 0 19.1-18.7 31.8-47 31.8-21.4 0-36.2-7.1-42.9-20.5-9.4-18.8 5.1-38.7 31.1-42.7 8.8-1.4 25.6-.4 32.8 1.8zM145.5 116.4c-7 1.6-15.2 4.8-21.4 8.2-2.4 1.3-4.7 2.4-5.2 2.4s-.9-2-.9-4.5V118H93.8c-21.7 0-24.7.2-28.5 1.9-5.2 2.4-7.8 6.3-7.8 11.7 0 3.1.7 4.9 2.5 6.9 3.9 4.2 7.4 5.5 16 6.2l8 .6-.2 54.1-.3 54.1-8.5.5c-6.8.4-9.2 1-11.8 2.8-3.7 2.7-6.2 6.9-6.2 10.5 0 3.4 3.8 8.7 8 11.1 3.4 2 5 2.1 42.5 2.1 36.4 0 39.3-.1 42.9-1.9 9.4-4.7 10.3-16.5 1.7-21.9-3.2-1.9-5.3-2.3-18.6-2.7l-15-.5-.3-19.8c-.1-10.8-.1-19.7.1-19.7s3.4 1.5 7.3 3.4c10 4.9 19.4 7.6 31.6 8.8 36.7 3.9 72.7-11 84.5-34.9 3.3-6.7 3.8-8.6 4.1-16.8.7-15.2-3.7-26.3-14.8-37.2-9.3-9.2-20.2-15-36.8-19.5-10-2.7-39.3-3.5-48.7-1.4zm37.3 27.1c12.6 3 23.6 10.5 26.9 18.4 3.8 8.8.3 20.8-7.8 27.2-11.6 9.2-31.8 12.9-51.1 9.5-28.7-5.2-41.3-28-24.6-44.5 4.2-4.1 13.2-8.8 20.6-10.5 7.7-1.9 28.1-2 36-.1zM501.4 128c-10.3 3.4-25.6 14.8-32.6 24.4-7.5 10.4 1 22.6 15.7 22.6 6.9 0 10.2-1.7 18-9 8.5-8 11.4-10 14.4-10 1.7 0 7.1 2.9 14.2 7.5 13.9 9.2 23.3 13.9 31.9 15.9 17.7 4.2 32.2-.5 48.7-15.8 9.7-9.1 12.3-12.9 12.3-18.4 0-10.3-15.1-17.5-26.6-12.7-1.9.8-7.2 5-11.7 9.3-4.6 4.4-9.2 8.2-10.4 8.6-2.7.9-5.3-.5-19.1-9.6-5.9-3.9-14.1-8.7-18.2-10.7-7.1-3.3-8.2-3.5-19-3.8-9.3-.2-12.7.1-17.6 1.7z"/>
</svg>
